<svg width="38" height="38" viewBox="0 0 38 38" fill="none" xmlns="http://www.w3.org/2000/svg">
    <path
        d="M28.1668 3.12346C30.9319 4.72003 33.2321 7.01109 34.8397 9.76985C36.4474 12.5286 37.3066 15.6594 37.3324 18.8523C37.3582 22.0451 36.5496 25.1894 34.9868 27.9737C33.424 30.7581 31.161 33.086 28.422 34.727C25.683 36.3681 22.5629 37.2653 19.3706 37.3299C16.1783 37.3945 13.0244 36.6243 10.2213 35.0954C7.41811 33.5665 5.06285 31.3321 3.38864 28.6132C1.71443 25.8944 0.779332 22.7854 0.675915 19.5941L0.666748 19.0001L0.675915 18.4061C0.778587 15.2399 1.69992 12.1544 3.35009 9.45028C5.00026 6.74617 7.32295 4.51579 10.0917 2.97658C12.8605 1.43737 15.9809 0.641856 19.1486 0.667598C22.3163 0.69334 25.4234 1.53946 28.1668 3.12346ZM25.7962 14.0373C25.4806 13.7216 25.0605 13.532 24.615 13.504C24.1695 13.476 23.729 13.6115 23.3763 13.8851L23.2039 14.0373L17.1667 20.0726L14.7962 17.704L14.6239 17.5518C14.2712 17.2784 13.8308 17.143 13.3853 17.1711C12.9399 17.1992 12.52 17.3888 12.2044 17.7044C11.8888 18.02 11.6992 18.4399 11.6711 18.8854C11.643 19.3308 11.7783 19.7712 12.0517 20.124L12.2039 20.2963L15.8706 23.963L16.0429 24.1151C16.3644 24.3646 16.7598 24.5 17.1667 24.5C17.5737 24.5 17.9691 24.3646 18.2906 24.1151L18.4629 23.963L25.7962 16.6296L25.9484 16.4573C26.222 16.1046 26.3576 15.6641 26.3295 15.2185C26.3015 14.773 26.1119 14.353 25.7962 14.0373Z"
        fill="white" />
</svg>