<svg width="417" height="403" viewBox="0 0 417 403" fill="none" xmlns="http://www.w3.org/2000/svg">
<path fill-rule="evenodd" clip-rule="evenodd" d="M208.743 162.886L416.485 282.582L208.743 402.277L1 282.582L208.743 162.886Z" stroke="#3364ED" stroke-width="0.540117" stroke-linecap="round" stroke-linejoin="round" stroke-dasharray="2.16 2.16 2.16 2.16"/>
<path fill-rule="evenodd" clip-rule="evenodd" d="M34.7503 301.781C35.1968 301.007 36.1848 300.741 36.9595 301.185L70.7086 320.535C71.4866 320.981 71.7543 321.974 71.3059 322.751L70.682 323.831C70.2355 324.605 69.2475 324.871 68.4728 324.427L34.7237 305.077C33.9457 304.631 33.6779 303.638 34.1263 302.862L34.7503 301.781Z" fill="url(#paint0_linear_5_413)"/>
<path fill-rule="evenodd" clip-rule="evenodd" d="M69.1248 324.475C70.3651 324.475 71.3706 323.47 71.3706 322.231C71.3706 320.991 70.3651 319.987 69.1248 319.987C67.8844 319.987 66.8789 320.991 66.8789 322.231C66.8789 323.47 67.8844 324.475 69.1248 324.475Z" fill="#3DBEFF"/>
<path fill-rule="evenodd" clip-rule="evenodd" d="M349.047 320.483C348.6 319.71 347.612 319.444 346.837 319.888L313.088 339.237C312.31 339.683 312.043 340.677 312.491 341.453L313.115 342.534C313.561 343.307 314.549 343.574 315.324 343.129L349.073 323.78C349.851 323.334 350.119 322.341 349.671 321.564L349.047 320.483Z" fill="url(#paint1_linear_5_413)"/>
<path fill-rule="evenodd" clip-rule="evenodd" d="M348.36 323.727C347.12 323.727 346.114 322.722 346.114 321.483C346.114 320.243 347.12 319.238 348.36 319.238C349.6 319.238 350.606 320.243 350.606 321.483C350.606 322.722 349.6 323.727 348.36 323.727Z" fill="#3DBEFF"/>
<path fill-rule="evenodd" clip-rule="evenodd" d="M208.743 149.42L416.485 269.116L208.743 388.811L1 269.116L208.743 149.42Z" fill="#D7E2F6"/>
<path fill-rule="evenodd" clip-rule="evenodd" d="M233.634 143.86L234.009 144.508L208.743 159.092L233.681 173.487L259.088 158.822L259.462 159.47L234.43 173.919L258.994 188.097L283.792 173.784L284.167 174.432L259.742 188.529L285.43 203.356L310.743 188.746L311.117 189.393L286.178 203.788L311.491 218.399L336.944 203.708L337.319 204.355L312.24 218.831L338.2 233.816L363.146 219.417L363.52 220.065L338.949 234.248L364.262 248.859L389.348 234.38L389.722 235.027L365.011 249.291L389.722 263.555L389.348 264.203L364.262 249.723L339.324 264.118L364.269 278.517L363.895 279.165L338.575 264.55L314.011 278.729L339.565 293.479L339.19 294.127L313.262 279.161L287.575 293.988L312.614 308.441L312.24 309.089L286.827 294.42L261.514 309.031L286.413 323.403L286.038 324.051L260.765 309.463L234.804 324.448L260.211 339.113L259.836 339.761L234.056 324.88L208.743 339.491L234.009 354.075L233.634 354.723L207.994 339.923L182.354 354.723L181.98 354.075L207.246 339.491L181.932 324.88L156.152 339.761L155.778 339.113L181.184 324.448L155.223 309.463L129.951 324.051L129.576 323.403L154.475 309.031L129.162 294.42L103.749 309.089L103.374 308.441L128.414 293.988L102.726 279.161L76.7984 294.127L76.4239 293.479L101.978 278.729L77.4134 264.55L52.0937 279.165L51.7193 278.517L76.665 264.118L51.7262 249.723L26.6405 264.203L26.2661 263.555L50.9779 249.291L26.2662 235.027L26.6407 234.38L51.7262 248.859L77.0396 234.248L52.468 220.065L52.8425 219.417L77.788 233.816L103.749 218.831L78.6698 204.355L79.0443 203.708L104.497 218.399L129.81 203.788L104.872 189.393L105.246 188.746L130.559 203.356L156.246 188.529L131.822 174.432L132.196 173.784L156.994 188.097L181.559 173.918L156.527 159.47L156.901 158.822L182.307 173.487L207.246 159.092L181.979 144.508L182.354 143.86L207.994 158.66L233.634 143.86ZM207.994 159.524L183.056 173.918L207.994 188.313L232.933 173.919L207.994 159.524ZM182.307 174.35L157.743 188.529L182.682 202.924L207.246 188.745L182.307 174.35ZM156.994 188.961L131.307 203.788L156.246 218.183L181.933 203.356L156.994 188.961ZM130.559 204.22L105.246 218.831L130.184 233.226L155.497 218.615L130.559 204.22ZM104.497 219.263L78.5363 234.248L103.475 248.643L129.436 233.658L104.497 219.263ZM77.7879 234.68L52.4746 249.291L77.4134 263.686L102.727 249.075L77.7879 234.68ZM208.743 188.745L233.681 174.351L258.246 188.529L233.307 202.924L208.743 188.745ZM183.43 203.356L207.994 189.177L232.559 203.356L207.994 217.535L183.43 203.356ZM156.994 218.615L182.682 203.788L207.246 217.967L181.559 232.794L156.994 218.615ZM130.933 233.658L156.246 219.047L180.81 233.226L155.497 247.837L130.933 233.658ZM104.223 249.075L130.184 234.09L154.749 248.269L128.788 263.254L104.223 249.075ZM78.1617 264.118L103.475 249.507L128.04 263.686L102.726 278.297L78.1617 264.118ZM258.994 188.961L234.055 203.356L259.743 218.183L284.681 203.788L258.994 188.961ZM233.307 203.788L208.743 217.967L234.43 232.794L258.995 218.615L233.307 203.788ZM207.994 218.399L182.307 233.226L207.994 248.053L233.682 233.226L207.994 218.399ZM181.559 233.658L156.246 248.269L181.933 263.096L207.246 248.485L181.559 233.658ZM155.497 248.701L129.536 263.686L155.224 278.513L181.185 263.528L155.497 248.701ZM128.788 264.118L103.475 278.729L129.162 293.556L154.475 278.945L128.788 264.118ZM260.491 218.615L285.43 204.22L310.743 218.831L285.804 233.226L260.491 218.615ZM235.178 233.226L259.743 219.047L285.056 233.658L260.491 247.837L235.178 233.226ZM208.743 248.485L234.43 233.658L259.743 248.269L234.056 263.096L208.743 248.485ZM182.681 263.528L207.994 248.917L233.307 263.528L207.994 278.139L182.681 263.528ZM155.972 278.945L181.933 263.96L207.246 278.571L181.285 293.556L155.972 278.945ZM129.91 293.988L155.224 279.377L180.537 293.988L155.223 308.599L129.91 293.988ZM311.491 219.263L286.553 233.658L312.513 248.643L337.452 234.248L311.491 219.263ZM285.804 234.09L261.24 248.269L287.201 263.254L311.765 249.075L285.804 234.09ZM260.491 248.701L234.804 263.528L260.765 278.513L286.452 263.686L260.491 248.701ZM234.056 263.96L208.743 278.571L234.703 293.556L260.017 278.945L234.056 263.96ZM207.994 279.003L182.033 293.988L207.994 308.973L233.955 293.988L207.994 279.003ZM181.285 294.42L155.972 309.031L181.932 324.016L207.246 309.405L181.285 294.42ZM313.262 249.075L338.2 234.68L363.514 249.291L338.575 263.686L313.262 249.075ZM287.949 263.686L312.513 249.507L337.827 264.118L313.262 278.297L287.949 263.686ZM261.513 278.945L287.201 264.118L312.514 278.729L286.827 293.556L261.513 278.945ZM235.452 293.988L260.765 279.377L286.078 293.988L260.765 308.599L235.452 293.988ZM208.743 309.405L234.703 294.42L260.017 309.031L234.056 324.016L208.743 309.405ZM182.681 324.448L207.994 309.837L233.308 324.448L207.994 339.059L182.681 324.448Z" fill="#96CFFF"/>
<mask id="mask0_5_413" style="mask-type:luminance" maskUnits="userSpaceOnUse" x="26" y="143" width="364" height="212">
<path fill-rule="evenodd" clip-rule="evenodd" d="M233.634 143.86L234.009 144.508L208.743 159.092L233.681 173.487L259.088 158.822L259.462 159.47L234.43 173.919L258.994 188.097L283.792 173.784L284.167 174.432L259.742 188.529L285.43 203.356L310.743 188.746L311.117 189.393L286.178 203.788L311.491 218.399L336.944 203.708L337.319 204.355L312.24 218.831L338.2 233.816L363.146 219.417L363.52 220.065L338.949 234.248L364.262 248.859L389.348 234.38L389.722 235.027L365.011 249.291L389.722 263.555L389.348 264.203L364.262 249.723L339.324 264.118L364.269 278.517L363.895 279.165L338.575 264.55L314.011 278.729L339.565 293.479L339.19 294.127L313.262 279.161L287.575 293.988L312.614 308.441L312.24 309.089L286.827 294.42L261.514 309.031L286.413 323.403L286.038 324.051L260.765 309.463L234.804 324.448L260.211 339.113L259.836 339.761L234.056 324.88L208.743 339.491L234.009 354.075L233.634 354.723L207.994 339.923L182.354 354.723L181.98 354.075L207.246 339.491L181.932 324.88L156.152 339.761L155.778 339.113L181.184 324.448L155.223 309.463L129.951 324.051L129.576 323.403L154.475 309.031L129.162 294.42L103.749 309.089L103.374 308.441L128.414 293.988L102.726 279.161L76.7984 294.127L76.4239 293.479L101.978 278.729L77.4134 264.55L52.0937 279.165L51.7193 278.517L76.665 264.118L51.7262 249.723L26.6405 264.203L26.2661 263.555L50.9779 249.291L26.2662 235.027L26.6407 234.38L51.7262 248.859L77.0396 234.248L52.468 220.065L52.8425 219.417L77.788 233.816L103.749 218.831L78.6698 204.355L79.0443 203.708L104.497 218.399L129.81 203.788L104.872 189.393L105.246 188.746L130.559 203.356L156.246 188.529L131.822 174.432L132.196 173.784L156.994 188.097L181.559 173.918L156.527 159.47L156.901 158.822L182.307 173.487L207.246 159.092L181.979 144.508L182.354 143.86L207.994 158.66L233.634 143.86ZM207.994 159.524L183.056 173.918L207.994 188.313L232.933 173.919L207.994 159.524ZM182.307 174.35L157.743 188.529L182.682 202.924L207.246 188.745L182.307 174.35ZM156.994 188.961L131.307 203.788L156.246 218.183L181.933 203.356L156.994 188.961ZM130.559 204.22L105.246 218.831L130.184 233.226L155.497 218.615L130.559 204.22ZM104.497 219.263L78.5363 234.248L103.475 248.643L129.436 233.658L104.497 219.263ZM77.7879 234.68L52.4746 249.291L77.4134 263.686L102.727 249.075L77.7879 234.68ZM208.743 188.745L233.681 174.351L258.246 188.529L233.307 202.924L208.743 188.745ZM183.43 203.356L207.994 189.177L232.559 203.356L207.994 217.535L183.43 203.356ZM156.994 218.615L182.682 203.788L207.246 217.967L181.559 232.794L156.994 218.615ZM130.933 233.658L156.246 219.047L180.81 233.226L155.497 247.837L130.933 233.658ZM104.223 249.075L130.184 234.09L154.749 248.269L128.788 263.254L104.223 249.075ZM78.1617 264.118L103.475 249.507L128.04 263.686L102.726 278.297L78.1617 264.118ZM258.994 188.961L234.055 203.356L259.743 218.183L284.681 203.788L258.994 188.961ZM233.307 203.788L208.743 217.967L234.43 232.794L258.995 218.615L233.307 203.788ZM207.994 218.399L182.307 233.226L207.994 248.053L233.682 233.226L207.994 218.399ZM181.559 233.658L156.246 248.269L181.933 263.096L207.246 248.485L181.559 233.658ZM155.497 248.701L129.536 263.686L155.224 278.513L181.185 263.528L155.497 248.701ZM128.788 264.118L103.475 278.729L129.162 293.556L154.475 278.945L128.788 264.118ZM260.491 218.615L285.43 204.22L310.743 218.831L285.804 233.226L260.491 218.615ZM235.178 233.226L259.743 219.047L285.056 233.658L260.491 247.837L235.178 233.226ZM208.743 248.485L234.43 233.658L259.743 248.269L234.056 263.096L208.743 248.485ZM182.681 263.528L207.994 248.917L233.307 263.528L207.994 278.139L182.681 263.528ZM155.972 278.945L181.933 263.96L207.246 278.571L181.285 293.556L155.972 278.945ZM129.91 293.988L155.224 279.377L180.537 293.988L155.223 308.599L129.91 293.988ZM311.491 219.263L286.553 233.658L312.513 248.643L337.452 234.248L311.491 219.263ZM285.804 234.09L261.24 248.269L287.201 263.254L311.765 249.075L285.804 234.09ZM260.491 248.701L234.804 263.528L260.765 278.513L286.452 263.686L260.491 248.701ZM234.056 263.96L208.743 278.571L234.703 293.556L260.017 278.945L234.056 263.96ZM207.994 279.003L182.033 293.988L207.994 308.973L233.955 293.988L207.994 279.003ZM181.285 294.42L155.972 309.031L181.932 324.016L207.246 309.405L181.285 294.42ZM313.262 249.075L338.2 234.68L363.514 249.291L338.575 263.686L313.262 249.075ZM287.949 263.686L312.513 249.507L337.827 264.118L313.262 278.297L287.949 263.686ZM261.513 278.945L287.201 264.118L312.514 278.729L286.827 293.556L261.513 278.945ZM235.452 293.988L260.765 279.377L286.078 293.988L260.765 308.599L235.452 293.988ZM208.743 309.405L234.703 294.42L260.017 309.031L234.056 324.016L208.743 309.405ZM182.681 324.448L207.994 309.837L233.308 324.448L207.994 339.059L182.681 324.448Z" fill="white"/>
</mask>
<g mask="url(#mask0_5_413)">
<path fill-rule="evenodd" clip-rule="evenodd" d="M208.368 270.612C265.838 270.612 312.427 230.085 312.427 180.092C312.427 130.1 265.838 89.5725 208.368 89.5725C150.899 89.5725 104.31 130.1 104.31 180.092C104.31 230.085 150.899 270.612 208.368 270.612Z" fill="url(#paint2_radial_5_413)"/>
</g>
<path d="M1.5362 248.917L208.368 129.303L415.2 248.917L208.368 368.532L1.5362 248.917Z" stroke="#3364ED" stroke-width="0.540117" stroke-linecap="round"/>
<path fill-rule="evenodd" clip-rule="evenodd" d="M208.368 368.613L415.736 248.917V257.146L208.368 376.842V368.613Z" fill="url(#paint3_linear_5_413)"/>
<path fill-rule="evenodd" clip-rule="evenodd" d="M1 248.169L208.368 367.864V376.093L1 256.398V248.169Z" fill="url(#paint4_linear_5_413)"/>
<path d="M338.657 234.175L363.385 248.722" stroke="#3364ED" stroke-width="0.540117"/>
<path d="M363.154 127.434V249.131" stroke="#3768EE" stroke-width="0.540117" stroke-dasharray="2.16 2.16 2.16 2.16"/>
<path fill-rule="evenodd" clip-rule="evenodd" d="M362.584 124.733L388.037 138.947V162.886L362.584 148.672V124.733Z" fill="url(#paint5_linear_5_413)"/>
<path fill-rule="evenodd" clip-rule="evenodd" d="M374.936 137.013C376.398 137.87 377.583 140.242 377.583 142.31C377.583 144.379 376.398 145.362 374.936 144.505C373.474 143.648 372.289 141.275 372.289 139.207C372.289 137.138 373.474 136.156 374.936 137.013ZM373.167 143.678C374.248 145.279 375.625 146.087 376.705 145.753C379.054 148.385 379.054 150.773 379.054 153.161L370.819 148.334C370.819 145.945 370.819 143.557 373.167 143.678Z" fill="#3767EF"/>
<path d="M77.998 233.942L51.1689 249.253" stroke="#3364ED" stroke-width="0.540117"/>
<path d="M51.7276 179.978V249.13" stroke="#3768EE" stroke-width="0.540117" stroke-dasharray="2.16 2.16 2.16 2.16"/>
<path fill-rule="evenodd" clip-rule="evenodd" d="M52.6548 177.848L27.2016 192.062V216.001L52.6548 201.787V177.848Z" fill="url(#paint6_linear_5_413)"/>
<path fill-rule="evenodd" clip-rule="evenodd" d="M41.9332 192.001L40.4451 192.827V191.184C40.8106 190.779 41.059 190.243 41.059 189.786C41.059 189.123 40.5371 188.876 39.8932 189.233C39.2494 189.59 38.7275 190.417 38.7275 191.08C38.7275 191.511 38.9481 191.766 39.2794 191.794V193.474L37.8533 194.266V195.466L34.2758 197.452V199.98L33.1904 200.582V204.652L34.2758 204.049V207.052L45.1941 200.991V197.988L46.3046 197.371V193.302L45.1941 193.918V191.39L41.9332 193.201V192.001ZM37.2705 203.29V202.39L42.2248 199.64V200.54L37.2705 203.29ZM37.2829 200.54C37.963 200.162 38.5142 199.29 38.5142 198.592C38.5142 197.894 37.9629 197.634 37.2829 198.012C36.6029 198.389 36.0516 199.261 36.0516 199.959C36.0516 200.657 36.6028 200.918 37.2829 200.54ZM43.5945 195.772C43.5945 196.47 43.0431 197.342 42.3632 197.72C41.6832 198.097 41.1315 197.837 41.1315 197.139C41.1315 196.441 41.6832 195.569 42.3632 195.191C43.0431 194.814 43.5945 195.074 43.5945 195.772Z" fill="#3767EF"/>
<path d="M250.2 272.745L286.351 293.642V278.18" stroke="#3364ED" stroke-width="0.540117"/>
<path fill-rule="evenodd" clip-rule="evenodd" d="M286.224 278.093C287.878 278.093 289.218 276.753 289.218 275.101C289.218 273.448 287.878 272.108 286.224 272.108C284.57 272.108 283.229 273.448 283.229 275.101C283.229 276.753 284.57 278.093 286.224 278.093Z" fill="white" stroke="#3364ED" stroke-width="0.540117"/>
<path d="M157.347 338.512L181.729 324.437L208.131 339.26L234.195 324.437V306.414" stroke="#3364ED" stroke-width="0.540117"/>
<path fill-rule="evenodd" clip-rule="evenodd" d="M234.195 308.765C236.056 308.765 237.564 307.258 237.564 305.399C237.564 303.539 236.056 302.032 234.195 302.032C232.334 302.032 230.826 303.539 230.826 305.399C230.826 307.258 232.334 308.765 234.195 308.765Z" fill="white" stroke="#3364ED" stroke-width="0.540117"/>
<path d="M220.278 270.592L155.723 309.107L129.278 293.502V279.911" stroke="#3364ED" stroke-width="0.540117"/>
<path fill-rule="evenodd" clip-rule="evenodd" d="M129.388 279.59C131.248 279.59 132.757 278.082 132.757 276.223C132.757 274.364 131.248 272.857 129.388 272.857C127.527 272.857 126.019 274.364 126.019 276.223C126.019 278.082 127.527 279.59 129.388 279.59Z" fill="white" stroke="#3364ED" stroke-width="0.540117"/>
<path fill-rule="evenodd" clip-rule="evenodd" d="M156.713 81.3438L208.368 111.268V218.245L156.713 188.322V81.3438Z" fill="url(#paint7_linear_5_413)"/>
<path fill-rule="evenodd" clip-rule="evenodd" d="M161.204 83.5879L161.953 84.3631V190.566L161.204 189.79V83.5879ZM166.444 86.5802L167.193 87.3554V193.558L166.444 192.783V86.5802ZM171.685 89.5726L172.434 90.3478V196.55L171.685 195.775V89.5726ZM176.925 92.565L177.674 93.3402V199.543L176.925 198.768V92.565ZM182.166 95.5573L182.914 96.3325V202.535L182.166 201.76V95.5573ZM187.406 98.5497L188.155 99.3249V205.527L187.406 204.752V98.5497ZM192.646 101.542L193.395 102.317V208.52L192.646 207.745V101.542ZM197.887 104.534L198.635 105.31V211.512L197.887 210.737V104.534ZM203.127 107.527L203.876 108.302V214.505L203.127 213.729V107.527Z" fill="url(#paint8_linear_5_413)"/>
<path fill-rule="evenodd" clip-rule="evenodd" d="M202.378 114.26L204.624 115.756V122.489L202.378 120.992V114.26Z" fill="#79DAFF"/>
<path fill-rule="evenodd" clip-rule="evenodd" d="M197.139 138.199L199.385 139.695V146.428L197.139 144.932V138.199Z" fill="#79DAFF"/>
<path fill-rule="evenodd" clip-rule="evenodd" d="M191.898 168.123L194.144 169.619V176.352L191.898 174.855V168.123Z" fill="#79DAFF"/>
<path fill-rule="evenodd" clip-rule="evenodd" d="M181.417 119.496L183.663 120.993V127.725L181.417 126.229V119.496Z" fill="#79DAFF"/>
<path fill-rule="evenodd" clip-rule="evenodd" d="M181.417 148.672L183.663 150.168V153.161L181.417 151.665V148.672Z" fill="#FF7777"/>
<path fill-rule="evenodd" clip-rule="evenodd" d="M191.898 112.015L194.144 113.512V116.504L191.898 115.008V112.015Z" fill="#FF7777"/>
<path fill-rule="evenodd" clip-rule="evenodd" d="M176.177 92.5649L178.423 94.0611V97.0535L176.177 95.5573V92.5649Z" fill="#FF7777"/>
<path fill-rule="evenodd" clip-rule="evenodd" d="M165.696 112.763L167.942 114.26V117.252L165.696 115.756V112.763Z" fill="#FF7777"/>
<path fill-rule="evenodd" clip-rule="evenodd" d="M170.937 134.458L173.182 135.954V142.687L170.937 141.191V134.458Z" fill="#79DAFF"/>
<path fill-rule="evenodd" clip-rule="evenodd" d="M165.696 91.8167L167.942 93.3128V100.046L165.696 98.5495V91.8167Z" fill="#79DAFF"/>
<path fill-rule="evenodd" clip-rule="evenodd" d="M208.368 51.4199L260.023 81.3438L208.368 111.268L156.713 81.3438L208.368 51.4199Z" fill="url(#paint9_linear_5_413)"/>
<path fill-rule="evenodd" clip-rule="evenodd" d="M260.023 81.3438L208.368 111.268V218.245L260.023 188.322V81.3438Z" fill="url(#paint10_linear_5_413)"/>
<path fill-rule="evenodd" clip-rule="evenodd" d="M253.286 122.489L215.854 144.184V159.146L253.286 137.451V122.489ZM253.286 143.436L215.854 165.131V180.092L253.286 158.398V143.436ZM215.854 186.077L253.286 164.382V179.344L215.854 201.039V186.077Z" fill="white" fill-opacity="0.11"/>
<path fill-rule="evenodd" clip-rule="evenodd" d="M253.285 92.5652L248.793 95.1697V97.8019L253.285 95.1974V92.5652Z" fill="#FF5730"/>
<path fill-rule="evenodd" clip-rule="evenodd" d="M208.367 0H230.826V81.6365L208.367 94.6468V94.647L208.367 94.6469L185.909 81.6366V0.394589H208.367V0Z" fill="url(#paint11_linear_5_413)"/>
<path fill-rule="evenodd" clip-rule="evenodd" d="M208.368 68.626L230.826 81.6363L208.368 94.6467L185.909 81.6363L208.368 68.626Z" fill="url(#paint12_linear_5_413)"/>
<path fill-rule="evenodd" clip-rule="evenodd" d="M195.267 64.1374C195.887 64.1374 196.39 63.635 196.39 63.0152C196.39 62.3955 195.887 61.8931 195.267 61.8931C194.647 61.8931 194.144 62.3955 194.144 63.0152C194.144 63.635 194.647 64.1374 195.267 64.1374Z" fill="#EFF7FF"/>
<path fill-rule="evenodd" clip-rule="evenodd" d="M220.346 56.6566C220.759 56.6566 221.094 56.3217 221.094 55.9085C221.094 55.4953 220.759 55.1604 220.346 55.1604C219.932 55.1604 219.597 55.4953 219.597 55.9085C219.597 56.3217 219.932 56.6566 220.346 56.6566Z" fill="#EFF7FF"/>
<path fill-rule="evenodd" clip-rule="evenodd" d="M212.111 43.1908C212.525 43.1908 212.86 42.8558 212.86 42.4427C212.86 42.0295 212.525 41.6946 212.111 41.6946C211.698 41.6946 211.363 42.0295 211.363 42.4427C211.363 42.8558 211.698 43.1908 212.111 43.1908Z" fill="#EFF7FF"/>
<path fill-rule="evenodd" clip-rule="evenodd" d="M198.636 51.4198C199.049 51.4198 199.384 51.0848 199.384 50.6717C199.384 50.2585 199.049 49.9236 198.636 49.9236C198.222 49.9236 197.887 50.2585 197.887 50.6717C197.887 51.0848 198.222 51.4198 198.636 51.4198Z" fill="#EFF7FF"/>
<path fill-rule="evenodd" clip-rule="evenodd" d="M201.067 79.5982L198.078 77.9103V75.6596L200.607 75.7784L197.03 73.7585L193.39 75.2632L190.401 73.5753V71.2965L215.241 63.6889L217.38 62.5552L217.446 64.9341L203.202 77.6862L222.988 68.0638L225.846 67.4437V69.6779L205.237 81.9531L202.379 80.339V78.4234L201.067 79.5982Z" fill="#425991"/>
<path fill-rule="evenodd" clip-rule="evenodd" d="M201.067 77.3536L198.078 75.6657L200.607 73.5338L197.03 71.5139L193.39 73.0186L190.401 71.3307L215.241 61.4443L217.446 62.6895L201.067 77.3536ZM204.173 70.532L208.692 66.7029L202.147 69.3883L204.173 70.532ZM205.237 79.7087L202.379 78.0946L222.988 65.8194L225.846 67.4335L205.237 79.7087Z" fill="url(#paint13_linear_5_413)"/>
<path opacity="0.3" fill-rule="evenodd" clip-rule="evenodd" d="M180.669 173.36L129.015 143.436V204.032L180.669 233.955V173.36Z" fill="#3364ED"/>
<path opacity="0.701597" fill-rule="evenodd" clip-rule="evenodd" d="M129.014 263.879L77.3595 233.955L129.763 203.283L181.418 233.207L129.014 263.879Z" fill="#3364ED"/>
<path opacity="0.5" fill-rule="evenodd" clip-rule="evenodd" d="M77.3597 173.36L129.015 143.436V204.032L77.3597 233.955V173.36Z" fill="#3364ED"/>
<path fill-rule="evenodd" clip-rule="evenodd" d="M88.5898 179.789L129.39 203.424V251.286L88.5898 227.65V179.789Z" fill="url(#paint14_linear_5_413)"/>
<path fill-rule="evenodd" clip-rule="evenodd" d="M129.39 156.153L170.19 179.789L129.39 203.424L88.5898 179.789L129.39 156.153Z" fill="url(#paint15_linear_5_413)"/>
<path fill-rule="evenodd" clip-rule="evenodd" d="M170.19 179.789L129.39 203.424V251.286L170.19 227.65V179.789Z" fill="url(#paint16_linear_5_413)"/>
<path fill-rule="evenodd" clip-rule="evenodd" d="M77.3594 173.36L129.014 203.283V263.879L77.3594 233.955V173.36Z" stroke="url(#paint17_linear_5_413)" stroke-width="1.08023" stroke-linejoin="round"/>
<path fill-rule="evenodd" clip-rule="evenodd" d="M180.669 173.36L129.015 203.283V263.879L180.669 233.955V173.36Z" stroke="url(#paint18_linear_5_413)" stroke-width="1.08023" stroke-linejoin="round"/>
<path fill-rule="evenodd" clip-rule="evenodd" d="M129.015 143.436L180.67 173.36L129.015 203.283L77.3599 173.36L129.015 143.436Z" stroke="url(#paint19_linear_5_413)" stroke-width="1.08023" stroke-linejoin="round"/>
<path fill-rule="evenodd" clip-rule="evenodd" d="M123.774 180.093C124.601 180.093 125.271 179.423 125.271 178.597C125.271 177.77 124.601 177.1 123.774 177.1C122.947 177.1 122.277 177.77 122.277 178.597C122.277 179.423 122.947 180.093 123.774 180.093Z" fill="#A2FF74"/>
<path fill-rule="evenodd" clip-rule="evenodd" d="M146.233 181.589C147.06 181.589 147.73 180.919 147.73 180.093C147.73 179.266 147.06 178.596 146.233 178.596C145.406 178.596 144.736 179.266 144.736 180.093C144.736 180.919 145.406 181.589 146.233 181.589Z" fill="#A2FF74"/>
<path fill-rule="evenodd" clip-rule="evenodd" d="M135.753 172.612C136.58 172.612 137.25 171.942 137.25 171.116C137.25 170.289 136.58 169.619 135.753 169.619C134.926 169.619 134.255 170.289 134.255 171.116C134.255 171.942 134.926 172.612 135.753 172.612Z" fill="#A2FF74"/>
<path fill-rule="evenodd" clip-rule="evenodd" d="M132.757 188.321C133.584 188.321 134.255 187.652 134.255 186.825C134.255 185.999 133.584 185.329 132.757 185.329C131.931 185.329 131.26 185.999 131.26 186.825C131.26 187.652 131.931 188.321 132.757 188.321Z" fill="#A2FF74"/>
<path fill-rule="evenodd" clip-rule="evenodd" d="M110.299 181.589C111.126 181.589 111.796 180.919 111.796 180.093C111.796 179.266 111.126 178.596 110.299 178.596C109.472 178.596 108.802 179.266 108.802 180.093C108.802 180.919 109.472 181.589 110.299 181.589Z" fill="#A2FF74"/>
<path fill-rule="evenodd" clip-rule="evenodd" d="M259.274 132.962L312.427 163.634V248.917L259.274 218.245V132.962Z" fill="url(#paint20_linear_5_413)" stroke="url(#paint21_linear_5_413)" stroke-width="1.08023" stroke-linejoin="round"/>
<path fill-rule="evenodd" clip-rule="evenodd" d="M266.012 152.413L269.755 154.657V159.894L266.012 157.65V152.413Z" fill="url(#paint22_linear_5_413)"/>
<path fill-rule="evenodd" clip-rule="evenodd" d="M274.995 171.864L278.738 174.108V179.344L274.995 177.1V171.864Z" fill="url(#paint23_linear_5_413)"/>
<path fill-rule="evenodd" clip-rule="evenodd" d="M287.722 187.573L291.465 189.818V195.054L287.722 192.81V187.573Z" fill="url(#paint24_linear_5_413)"/>
<path fill-rule="evenodd" clip-rule="evenodd" d="M293.711 207.024L297.454 209.268V214.505L293.711 212.26V207.024Z" fill="url(#paint25_linear_5_413)"/>
<path fill-rule="evenodd" clip-rule="evenodd" d="M266.76 189.818L270.503 192.062V197.299L266.76 195.054V189.818Z" fill="url(#paint26_linear_5_413)"/>
<path fill-rule="evenodd" clip-rule="evenodd" d="M283.979 155.405L287.722 157.65V162.886L283.979 160.642V155.405Z" fill="url(#paint27_linear_5_413)"/>
<path fill-rule="evenodd" clip-rule="evenodd" d="M298.951 171.864L302.694 174.108V179.344L298.951 177.1V171.864Z" fill="url(#paint28_linear_5_413)"/>
<path fill-rule="evenodd" clip-rule="evenodd" d="M284.728 118L338.628 148.672L312.427 163.634L259.274 132.962L284.728 118Z" fill="url(#paint29_linear_5_413)" stroke="#5AC8FF" stroke-width="1.08023" stroke-linejoin="round"/>
<path fill-rule="evenodd" clip-rule="evenodd" d="M338.628 149.42L312.426 164.382V248.917L338.628 233.955V149.42Z" fill="url(#paint30_linear_5_413)" stroke="url(#paint31_linear_5_413)" stroke-width="1.08023" stroke-linejoin="round"/>
<path fill-rule="evenodd" clip-rule="evenodd" d="M319.164 169.326L333.388 161.39V163.179L319.164 171.115V169.326Z" fill="white"/>
<path fill-rule="evenodd" clip-rule="evenodd" d="M319.164 176.807L333.388 168.871V170.66L319.164 178.596V176.807Z" fill="white"/>
<path fill-rule="evenodd" clip-rule="evenodd" d="M319.164 184.288L333.388 176.352V178.141L319.164 186.077V184.288Z" fill="white"/>
<path fill-rule="evenodd" clip-rule="evenodd" d="M319.164 191.769L333.388 183.833V185.622L319.164 193.558V191.769Z" fill="white"/>
<path fill-rule="evenodd" clip-rule="evenodd" d="M319.164 199.25L333.388 191.314V193.103L319.164 201.039V199.25Z" fill="white"/>
<path fill-rule="evenodd" clip-rule="evenodd" d="M195.642 177.848L231.575 198.795V284.078L195.642 263.131V177.848Z" fill="url(#paint32_linear_5_413)"/>
<path fill-rule="evenodd" clip-rule="evenodd" d="M267.509 177.848L231.575 198.795V284.078L267.509 263.131V177.848Z" fill="url(#paint33_linear_5_413)"/>
<path fill-rule="evenodd" clip-rule="evenodd" d="M231.575 156.901L267.509 177.848L231.575 198.795L195.642 177.848L231.575 156.901Z" fill="url(#paint34_linear_5_413)"/>
<path fill-rule="evenodd" clip-rule="evenodd" d="M231.95 118.749H248.045V177.255L231.95 186.579L231.95 186.579V186.579L215.854 177.255V119.031H231.95V118.749Z" fill="url(#paint35_linear_5_413)"/>
<path fill-rule="evenodd" clip-rule="evenodd" d="M231.95 168.123L248.045 177.447L231.95 186.771L215.854 177.447L231.95 168.123Z" fill="url(#paint36_linear_5_413)"/>
<path fill-rule="evenodd" clip-rule="evenodd" d="M231.722 152.413L221.095 167.384L231.722 173.696V152.413Z" fill="url(#paint37_linear_5_413)"/>
<path fill-rule="evenodd" clip-rule="evenodd" d="M231.575 152.413L242.203 167.384L231.575 173.696V152.413Z" fill="url(#paint38_linear_5_413)"/>
<path fill-rule="evenodd" clip-rule="evenodd" d="M223.715 156.153C224.335 156.153 224.838 155.651 224.838 155.031C224.838 154.412 224.335 153.909 223.715 153.909C223.095 153.909 222.592 154.412 222.592 155.031C222.592 155.651 223.095 156.153 223.715 156.153Z" fill="#EFF7FF"/>
<path fill-rule="evenodd" clip-rule="evenodd" d="M239.062 150.169C239.475 150.169 239.81 149.834 239.81 149.421C239.81 149.008 239.475 148.673 239.062 148.673C238.648 148.673 238.313 149.008 238.313 149.421C238.313 149.834 238.648 150.169 239.062 150.169Z" fill="#EFF7FF"/>
<path fill-rule="evenodd" clip-rule="evenodd" d="M234.57 135.207C234.984 135.207 235.319 134.872 235.319 134.459C235.319 134.046 234.984 133.711 234.57 133.711C234.157 133.711 233.822 134.046 233.822 134.459C233.822 134.872 234.157 135.207 234.57 135.207Z" fill="#EFF7FF"/>
<path fill-rule="evenodd" clip-rule="evenodd" d="M227.084 143.436C227.498 143.436 227.833 143.101 227.833 142.688C227.833 142.274 227.498 141.939 227.084 141.939C226.671 141.939 226.335 142.274 226.335 142.688C226.335 143.101 226.671 143.436 227.084 143.436Z" fill="#EFF7FF"/>
<path fill-rule="evenodd" clip-rule="evenodd" d="M191.15 208.52H171.686V277.345H171.686C171.686 280.237 176.043 282.581 181.418 282.581C186.793 282.581 191.15 280.237 191.15 277.345C191.15 277.336 191.15 277.327 191.15 277.319V208.52Z" fill="url(#paint39_linear_5_413)"/>
<path fill-rule="evenodd" clip-rule="evenodd" d="M181.418 213.009C186.793 213.009 191.15 210.664 191.15 207.772C191.15 204.88 186.793 202.535 181.418 202.535C176.043 202.535 171.686 204.88 171.686 207.772C171.686 210.664 176.043 213.009 181.418 213.009Z" fill="url(#paint40_linear_5_413)"/>
<mask id="path-93-inside-1_5_413" fill="white">
<path fill-rule="evenodd" clip-rule="evenodd" d="M218.1 245.925H198.636V292.307H198.636C198.636 295.199 202.994 297.543 208.368 297.543C213.743 297.543 218.1 295.199 218.1 292.307C218.1 292.299 218.1 292.292 218.1 292.285V245.925Z"/>
</mask>
<path fill-rule="evenodd" clip-rule="evenodd" d="M218.1 245.925H198.636V292.307H198.636C198.636 295.199 202.994 297.543 208.368 297.543C213.743 297.543 218.1 295.199 218.1 292.307C218.1 292.299 218.1 292.292 218.1 292.285V245.925Z" fill="url(#paint41_linear_5_413)"/>
<path d="M198.636 245.925V244.845C198.04 244.845 197.556 245.328 197.556 245.925H198.636ZM218.1 245.925H219.181C219.181 245.328 218.697 244.845 218.1 244.845V245.925ZM198.636 292.307H197.556C197.556 292.903 198.04 293.387 198.636 293.387V292.307ZM198.636 292.307L199.717 292.307C199.717 291.71 199.233 291.227 198.636 291.227V292.307ZM218.1 292.285H217.02L217.02 292.293L218.1 292.285ZM198.636 247.005H218.1V244.845H198.636V247.005ZM199.716 292.307V245.925H197.556V292.307H199.716ZM198.636 291.227H198.636V293.387H198.636V291.227ZM197.556 292.307C197.556 294.341 199.072 295.937 200.975 296.961C202.922 298.009 205.538 298.624 208.368 298.624V296.463C205.824 296.463 203.574 295.906 201.999 295.058C200.379 294.187 199.717 293.165 199.717 292.307L197.556 292.307ZM208.368 298.624C211.199 298.624 213.815 298.009 215.762 296.961C217.665 295.937 219.181 294.341 219.181 292.307H217.02C217.02 293.165 216.357 294.187 214.738 295.058C213.163 295.906 210.913 296.463 208.368 296.463V298.624ZM219.181 292.307C219.181 292.297 219.181 292.287 219.181 292.277L217.02 292.293C217.02 292.298 217.02 292.302 217.02 292.307H219.181ZM217.02 245.925V292.285H219.181V245.925H217.02Z" fill="url(#paint42_linear_5_413)" mask="url(#path-93-inside-1_5_413)"/>
<path fill-rule="evenodd" clip-rule="evenodd" d="M208.368 250.414C213.743 250.414 218.1 248.069 218.1 245.177C218.1 242.285 213.743 239.94 208.368 239.94C202.993 239.94 198.636 242.285 198.636 245.177C198.636 248.069 202.993 250.414 208.368 250.414Z" fill="url(#paint43_linear_5_413)"/>
<path fill-rule="evenodd" clip-rule="evenodd" d="M77.3592 272.108C86.0417 272.108 93.0803 268.591 93.0803 264.253C93.0803 259.915 86.0417 256.398 77.3592 256.398C68.6767 256.398 61.6382 259.915 61.6382 264.253C61.6382 268.591 68.6767 272.108 77.3592 272.108Z" fill="#3667EF" fill-opacity="0.27"/>
<path fill-rule="evenodd" clip-rule="evenodd" d="M76.9848 265.001C78.0185 265.001 78.8564 264.582 78.8564 264.066C78.8564 263.55 78.0185 263.131 76.9848 263.131C75.9512 263.131 75.1133 263.55 75.1133 264.066C75.1133 264.582 75.9512 265.001 76.9848 265.001Z" fill="#3667EF"/>
<path fill-rule="evenodd" clip-rule="evenodd" d="M69.873 234.703L85.5941 243.681V263.131L69.873 254.154V234.703Z" fill="#83C6FF"/>
<path fill-rule="evenodd" clip-rule="evenodd" d="M69.873 242.184L85.5941 251.161V263.131L69.873 254.154V242.184Z" fill="url(#paint44_linear_5_413)"/>
<path d="M70.9321 243.009L84.9549 250.787" stroke="#008AFF" stroke-width="0.540117"/>
<path d="M70.4132 253.84V235.634L85.054 243.994V262.201L70.4132 253.84Z" stroke="#3465EE" stroke-width="1.08023"/>
<path fill-rule="evenodd" clip-rule="evenodd" d="M338.254 276.223C351.278 276.223 361.836 270.948 361.836 264.44C361.836 257.933 351.278 252.658 338.254 252.658C325.231 252.658 314.673 257.933 314.673 264.44C314.673 270.948 325.231 276.223 338.254 276.223Z" fill="#3667EF" fill-opacity="0.27"/>
<path fill-rule="evenodd" clip-rule="evenodd" d="M338.254 265.001C339.288 265.001 340.126 264.583 340.126 264.066C340.126 263.55 339.288 263.131 338.254 263.131C337.221 263.131 336.383 263.55 336.383 264.066C336.383 264.583 337.221 265.001 338.254 265.001Z" fill="#3667EF"/>
<path d="M330.934 250.136V236.375L346.323 245.019V259.056L338.857 260.301L330.934 250.136Z" fill="#83C6FF" stroke="#3465EE" stroke-width="1.08023"/>
<path fill-rule="evenodd" clip-rule="evenodd" d="M344.243 254.411L338.629 255.035L333.014 247.945L334.324 246.981L338.629 252.417L342.933 251.939L344.243 254.411Z" fill="#3767EF"/>
<path fill-rule="evenodd" clip-rule="evenodd" d="M342.372 250.926L338.629 251.342L334.886 246.614L336.196 245.651L338.629 248.723L341.062 248.453L342.372 250.926Z" fill="#3767EF"/>
<path fill-rule="evenodd" clip-rule="evenodd" d="M340.501 247.346L338.629 247.554L336.758 245.191L338.629 243.814L340.501 247.346Z" fill="#3767EF"/>
<defs>
<linearGradient id="paint0_linear_5_413" x1="69.5425" y1="319.743" x2="31.388" y2="297.715" gradientUnits="userSpaceOnUse">
<stop stop-color="#9DDEFF"/>
<stop offset="1" stop-color="#E8F4FF" stop-opacity="0.01"/>
</linearGradient>
<linearGradient id="paint1_linear_5_413" x1="350.418" y1="322.858" x2="315.887" y2="342.795" gradientUnits="userSpaceOnUse">
<stop stop-color="#9DDEFF"/>
<stop offset="1" stop-color="#E8F4FF" stop-opacity="0.01"/>
</linearGradient>
<radialGradient id="paint2_radial_5_413" cx="0" cy="0" r="1" gradientUnits="userSpaceOnUse" gradientTransform="translate(208.368 180.092) scale(110.878 95.4178)">
<stop stop-color="#425991"/>
<stop offset="1" stop-color="#3364ED" stop-opacity="0.01"/>
</radialGradient>
<linearGradient id="paint3_linear_5_413" x1="304.726" y1="436.885" x2="422.93" y2="258.812" gradientUnits="userSpaceOnUse">
<stop stop-color="#3364ED"/>
<stop offset="1" stop-color="#C3E4FF"/>
</linearGradient>
<linearGradient id="paint4_linear_5_413" x1="-95.3844" y1="316.336" x2="22.8049" y2="494.435" gradientUnits="userSpaceOnUse">
<stop stop-color="#3364ED"/>
<stop offset="1" stop-color="#C3E4FF"/>
</linearGradient>
<linearGradient id="paint5_linear_5_413" x1="357.649" y1="159.05" x2="385.093" y2="166.15" gradientUnits="userSpaceOnUse">
<stop stop-color="#5DCAFF"/>
<stop offset="1" stop-color="#C5EBFF"/>
</linearGradient>
<linearGradient id="paint6_linear_5_413" x1="57.5901" y1="212.165" x2="30.1461" y2="219.265" gradientUnits="userSpaceOnUse">
<stop stop-color="#5DCAFF"/>
<stop offset="1" stop-color="#C5EBFF"/>
</linearGradient>
<linearGradient id="paint7_linear_5_413" x1="156.713" y1="81.3438" x2="156.713" y2="218.245" gradientUnits="userSpaceOnUse">
<stop stop-color="#7496D5"/>
<stop offset="1" stop-color="#3E5489"/>
</linearGradient>
<linearGradient id="paint8_linear_5_413" x1="193.189" y1="0.917027" x2="125.203" y2="13.0943" gradientUnits="userSpaceOnUse">
<stop stop-color="#64CEFF"/>
<stop offset="1" stop-color="#74D7FF" stop-opacity="0.01"/>
</linearGradient>
<linearGradient id="paint9_linear_5_413" x1="260.023" y1="51.4199" x2="156.713" y2="51.4199" gradientUnits="userSpaceOnUse">
<stop stop-color="#8AE3FF"/>
<stop offset="1" stop-color="#52C4FF"/>
</linearGradient>
<linearGradient id="paint10_linear_5_413" x1="213.893" y1="217.981" x2="157.283" y2="107.862" gradientUnits="userSpaceOnUse">
<stop stop-color="#3B4D82"/>
<stop offset="1" stop-color="#364F8B"/>
</linearGradient>
<linearGradient id="paint11_linear_5_413" x1="190.243" y1="18.2641" x2="190.243" y2="94.6469" gradientUnits="userSpaceOnUse">
<stop stop-color="#4DAEFF" stop-opacity="0.01"/>
<stop offset="1" stop-color="#2C94EB"/>
</linearGradient>
<linearGradient id="paint12_linear_5_413" x1="185.909" y1="68.626" x2="185.909" y2="94.6467" gradientUnits="userSpaceOnUse">
<stop stop-color="#7792C4"/>
<stop offset="1" stop-color="#425991"/>
</linearGradient>
<linearGradient id="paint13_linear_5_413" x1="208.521" y1="56.8824" x2="200.96" y2="75.7811" gradientUnits="userSpaceOnUse">
<stop stop-color="#A9F2FF"/>
<stop offset="1" stop-color="#70E1FF"/>
</linearGradient>
<linearGradient id="paint14_linear_5_413" x1="103.169" y1="177.329" x2="82.3463" y2="197.453" gradientUnits="userSpaceOnUse">
<stop stop-color="#FF7E7E"/>
<stop offset="1" stop-color="#77D1FF"/>
</linearGradient>
<linearGradient id="paint15_linear_5_413" x1="170.19" y1="156.153" x2="88.5898" y2="156.153" gradientUnits="userSpaceOnUse">
<stop stop-color="#8AE3FF"/>
<stop offset="1" stop-color="#52C4FF"/>
</linearGradient>
<linearGradient id="paint16_linear_5_413" x1="151.001" y1="183.664" x2="172.747" y2="200.353" gradientUnits="userSpaceOnUse">
<stop stop-color="#FFA6B1"/>
<stop offset="1" stop-color="#31ACEC"/>
</linearGradient>
<linearGradient id="paint17_linear_5_413" x1="118.448" y1="238.426" x2="118.448" y2="184.94" gradientUnits="userSpaceOnUse">
<stop stop-color="white"/>
<stop offset="1" stop-color="#5AC8FF"/>
</linearGradient>
<linearGradient id="paint18_linear_5_413" x1="136.64" y1="248.33" x2="136.64" y2="184.537" gradientUnits="userSpaceOnUse">
<stop stop-color="white"/>
<stop offset="1" stop-color="#5AC8FF"/>
</linearGradient>
<linearGradient id="paint19_linear_5_413" x1="180.67" y1="203.283" x2="180.67" y2="143.436" gradientUnits="userSpaceOnUse">
<stop stop-color="white"/>
<stop offset="1" stop-color="#5AC8FF"/>
</linearGradient>
<linearGradient id="paint20_linear_5_413" x1="272.396" y1="174.71" x2="272.396" y2="233.416" gradientUnits="userSpaceOnUse">
<stop stop-color="#5DCAFF"/>
<stop offset="1" stop-color="#57C6FF" stop-opacity="0.36815"/>
</linearGradient>
<linearGradient id="paint21_linear_5_413" x1="301.393" y1="215.094" x2="301.393" y2="147.28" gradientUnits="userSpaceOnUse">
<stop stop-color="white"/>
<stop offset="1" stop-color="#5AC8FF"/>
</linearGradient>
<linearGradient id="paint22_linear_5_413" x1="266.012" y1="152.413" x2="266.012" y2="159.894" gradientUnits="userSpaceOnUse">
<stop stop-color="white"/>
<stop offset="1" stop-color="white" stop-opacity="0.01"/>
</linearGradient>
<linearGradient id="paint23_linear_5_413" x1="274.995" y1="171.864" x2="274.995" y2="179.344" gradientUnits="userSpaceOnUse">
<stop stop-color="white"/>
<stop offset="1" stop-color="white" stop-opacity="0.01"/>
</linearGradient>
<linearGradient id="paint24_linear_5_413" x1="287.722" y1="187.573" x2="287.722" y2="195.054" gradientUnits="userSpaceOnUse">
<stop stop-color="white"/>
<stop offset="1" stop-color="white" stop-opacity="0.01"/>
</linearGradient>
<linearGradient id="paint25_linear_5_413" x1="293.711" y1="207.024" x2="293.711" y2="214.505" gradientUnits="userSpaceOnUse">
<stop stop-color="white"/>
<stop offset="1" stop-color="white" stop-opacity="0.01"/>
</linearGradient>
<linearGradient id="paint26_linear_5_413" x1="266.76" y1="189.818" x2="266.76" y2="197.299" gradientUnits="userSpaceOnUse">
<stop stop-color="white"/>
<stop offset="1" stop-color="white" stop-opacity="0.01"/>
</linearGradient>
<linearGradient id="paint27_linear_5_413" x1="283.979" y1="155.405" x2="283.979" y2="162.886" gradientUnits="userSpaceOnUse">
<stop stop-color="white"/>
<stop offset="1" stop-color="white" stop-opacity="0.01"/>
</linearGradient>
<linearGradient id="paint28_linear_5_413" x1="298.951" y1="171.864" x2="298.951" y2="179.344" gradientUnits="userSpaceOnUse">
<stop stop-color="white"/>
<stop offset="1" stop-color="white" stop-opacity="0.01"/>
</linearGradient>
<linearGradient id="paint29_linear_5_413" x1="241.181" y1="166.817" x2="340.051" y2="220.228" gradientUnits="userSpaceOnUse">
<stop stop-color="#5AC8FF"/>
<stop offset="1" stop-color="#57C6FF" stop-opacity="0.36815"/>
</linearGradient>
<linearGradient id="paint30_linear_5_413" x1="332.16" y1="185.243" x2="332.16" y2="235.616" gradientUnits="userSpaceOnUse">
<stop stop-color="#5DCAFF"/>
<stop offset="1" stop-color="#57C6FF" stop-opacity="0.36815"/>
</linearGradient>
<linearGradient id="paint31_linear_5_413" x1="315.455" y1="232.001" x2="315.455" y2="155.509" gradientUnits="userSpaceOnUse">
<stop stop-color="white"/>
<stop offset="1" stop-color="#5AC8FF"/>
</linearGradient>
<linearGradient id="paint32_linear_5_413" x1="199.559" y1="188.78" x2="199.559" y2="271.851" gradientUnits="userSpaceOnUse">
<stop stop-color="#6EB5FF"/>
<stop offset="1" stop-color="#5582FF"/>
</linearGradient>
<linearGradient id="paint33_linear_5_413" x1="235.419" y1="283.872" x2="188.801" y2="202.575" gradientUnits="userSpaceOnUse">
<stop stop-color="#3364ED"/>
<stop offset="1" stop-color="#5582FF"/>
</linearGradient>
<linearGradient id="paint34_linear_5_413" x1="267.509" y1="156.901" x2="195.642" y2="156.901" gradientUnits="userSpaceOnUse">
<stop stop-color="#8AE3FF"/>
<stop offset="1" stop-color="#52C4FF"/>
</linearGradient>
<linearGradient id="paint35_linear_5_413" x1="218.96" y1="131.838" x2="218.96" y2="186.579" gradientUnits="userSpaceOnUse">
<stop stop-color="#4DAEFF" stop-opacity="0.01"/>
<stop offset="1" stop-color="#2C94EB"/>
</linearGradient>
<linearGradient id="paint36_linear_5_413" x1="215.854" y1="168.123" x2="215.854" y2="186.771" gradientUnits="userSpaceOnUse">
<stop stop-color="#7792C4"/>
<stop offset="1" stop-color="#425991"/>
</linearGradient>
<linearGradient id="paint37_linear_5_413" x1="226.528" y1="147.097" x2="214.905" y2="154.572" gradientUnits="userSpaceOnUse">
<stop stop-color="#A9F2FF"/>
<stop offset="1" stop-color="#70E1FF"/>
</linearGradient>
<linearGradient id="paint38_linear_5_413" x1="236.77" y1="147.097" x2="248.393" y2="154.572" gradientUnits="userSpaceOnUse">
<stop stop-color="#72CFDF"/>
<stop offset="1" stop-color="#3DC1E4"/>
</linearGradient>
<linearGradient id="paint39_linear_5_413" x1="191.15" y1="208.52" x2="171.686" y2="208.52" gradientUnits="userSpaceOnUse">
<stop stop-color="#3B4D82"/>
<stop offset="1" stop-color="#4D75D3"/>
</linearGradient>
<linearGradient id="paint40_linear_5_413" x1="191.15" y1="202.535" x2="171.686" y2="202.535" gradientUnits="userSpaceOnUse">
<stop stop-color="#8AE3FF"/>
<stop offset="1" stop-color="#52C4FF"/>
</linearGradient>
<linearGradient id="paint41_linear_5_413" x1="216.799" y1="290.643" x2="216.799" y2="245.925" gradientUnits="userSpaceOnUse">
<stop stop-color="#5DCAFF"/>
<stop offset="1" stop-color="white"/>
</linearGradient>
<linearGradient id="paint42_linear_5_413" x1="214.103" y1="294.49" x2="214.103" y2="264.072" gradientUnits="userSpaceOnUse">
<stop stop-color="white"/>
<stop offset="1" stop-color="#5AC8FF"/>
</linearGradient>
<linearGradient id="paint43_linear_5_413" x1="218.1" y1="239.94" x2="198.636" y2="239.94" gradientUnits="userSpaceOnUse">
<stop stop-color="#8AE3FF"/>
<stop offset="1" stop-color="#52C4FF"/>
</linearGradient>
<linearGradient id="paint44_linear_5_413" x1="76.0375" y1="241.846" x2="70.2724" y2="254.688" gradientUnits="userSpaceOnUse">
<stop stop-color="white"/>
<stop offset="1" stop-color="white" stop-opacity="0.01"/>
</linearGradient>
</defs>
</svg>
