<svg width="100" height="100" viewBox="0 0 100 100" fill="none" xmlns="http://www.w3.org/2000/svg">
<rect x="10" y="10" width="80" height="80" rx="5" fill="white"/>
<path d="M75 25H25L22.918 16.668H77.082L75 25Z" fill="#00D7D7"/>
<path d="M27.082 29.168V83.336H45.832V70.836H54.164V83.336H72.914L72.9179 29.168H27.082ZM41.668 66.668H33.336V58.336H41.668V66.668ZM41.668 54.168H33.336V45.836H41.668V54.168ZM41.668 41.668H33.336V33.336H41.668V41.668ZM54.168 66.668H45.836V58.336H54.168V66.668ZM54.168 54.168H45.836V45.836H54.168V54.168ZM54.168 41.668H45.836V33.336H54.168V41.668ZM66.668 66.668H58.336V58.336H66.668V66.668ZM66.668 54.168H58.336V45.836H66.668V54.168ZM66.668 41.668H58.336V33.336H66.668V41.668Z" fill="#00D7D7"/>
</svg>
