<svg width="44" height="44" viewBox="0 0 44 44" fill="none" xmlns="http://www.w3.org/2000/svg">
<path d="M0 22L11 2.94744H33L44 22L33 41.0526H11L0 22Z" fill="#6CC8EC"/>
<path d="M15.9292 28.1122L13.1008 30.9406M28.3036 22.809C26.3084 24.9601 23.1233 26.6977 21.3908 27.5471C20.66 27.9053 19.7954 27.7358 19.2199 27.1604L16.8811 24.8215C16.3056 24.246 16.1361 23.3814 16.4944 22.6507C17.3437 20.9182 19.0813 17.733 21.2325 15.7379C23.6304 13.5139 27.4279 12.6867 29.7691 12.3805C30.8945 12.2333 31.8081 13.147 31.6609 14.2724C31.3547 16.6136 30.5275 20.4111 28.3036 22.809Z" stroke="white" stroke-width="1.5" stroke-linecap="round"/>
<path d="M16.4594 28.6423C16.7523 28.3494 16.7523 27.8746 16.4594 27.5817C16.1665 27.2888 15.6916 27.2888 15.3988 27.5817L16.4594 28.6423ZM12.5703 30.4101C12.2774 30.703 12.2774 31.1779 12.5703 31.4708C12.8632 31.7637 13.3381 31.7637 13.631 31.4708L12.5703 30.4101ZM20.596 31.0819L21.3385 30.9758L20.596 31.0819ZM25.7579 27.617L26.5003 27.511L25.7579 27.617ZM12.9592 23.4451L13.0653 22.7027L13.0653 22.7027L12.9592 23.4451ZM16.424 18.2832L16.318 19.0257L16.318 19.0257L16.424 18.2832ZM15.3988 27.5817L12.5703 30.4101L13.631 31.4708L16.4594 28.6423L15.3988 27.5817ZM24.9447 27.9352L21.7627 31.1172L22.8234 32.1779L26.0054 28.9959L24.9447 27.9352ZM21.3385 30.9758L20.9142 28.0059L19.4293 28.2181L19.8535 31.1879L21.3385 30.9758ZM24.7326 25.7432L25.0154 27.7231L26.5003 27.511L26.2175 25.5311L24.7326 25.7432ZM21.7627 31.1172C21.617 31.2629 21.3676 31.1797 21.3385 30.9758L19.8535 31.1879C20.0575 32.6155 21.8037 33.1976 22.8234 32.1779L21.7627 31.1172ZM26.0054 28.9959C26.3948 28.6064 26.5782 28.0563 26.5003 27.511L25.0154 27.7231C25.0265 27.801 25.0003 27.8796 24.9447 27.9352L26.0054 28.9959ZM15.0452 18.0358L11.8632 21.2177L12.9239 22.2784L16.1058 19.0964L15.0452 18.0358ZM12.8532 24.1876L15.823 24.6119L16.0351 23.1269L13.0653 22.7027L12.8532 24.1876ZM18.51 17.8236L16.5301 17.5408L16.318 19.0257L18.2979 19.3086L18.51 17.8236ZM11.8632 21.2177C10.8435 22.2374 11.4256 23.9836 12.8532 24.1876L13.0653 22.7027C12.8613 22.6735 12.7782 22.4241 12.9239 22.2784L11.8632 21.2177ZM16.1058 19.0964C16.1615 19.0408 16.2401 19.0146 16.318 19.0257L16.5301 17.5408C15.9848 17.4629 15.4347 17.6463 15.0452 18.0358L16.1058 19.0964Z" fill="white"/>
<path opacity="0.3" d="M13.8076 25.9907L12.3934 27.4049M18.0503 30.2334L16.636 31.6476" stroke="white" stroke-width="1.5" stroke-linecap="round"/>
<path d="M17.6968 20.6875L23.3536 26.3444" stroke="white" stroke-width="1.5" stroke-linecap="round"/>
<path d="M23.7074 20.3339C22.9263 19.5529 22.9263 18.2866 23.7074 17.5055C24.4884 16.7245 25.7547 16.7245 26.5358 17.5055C27.3168 18.2866 27.3168 19.5529 26.5358 20.3339C25.7547 21.115 24.4884 21.115 23.7074 20.3339Z" stroke="white" stroke-width="1.5"/>
</svg>
