<svg width="44" height="44" viewBox="0 0 44 44" fill="none" xmlns="http://www.w3.org/2000/svg">
<path d="M0 22L11 2.94744H33L44 22L33 41.0526H11L0 22Z" fill="#4776F8"/>
<path fill-rule="evenodd" clip-rule="evenodd" d="M12 21.75C12 18.5744 14.5744 16 17.75 16H25.75C28.9256 16 31.5 18.5744 31.5 21.75C31.5 24.9256 28.9256 27.5 25.75 27.5H17.75C14.5744 27.5 12 24.9256 12 21.75ZM22.5 21.75C22.5 19.9551 23.9551 18.5 25.75 18.5C27.5449 18.5 29 19.9551 29 21.75C29 23.5449 27.5449 25 25.75 25C23.9551 25 22.5 23.5449 22.5 21.75Z" fill="white"/>
</svg>
