<svg width="44" height="44" viewBox="0 0 44 44" fill="none" xmlns="http://www.w3.org/2000/svg">
<path d="M0 22L11 2.94744H33L44 22L33 41.0526H11L0 22Z" fill="#4776F8"/>
<path d="M23.9933 13.2742C24.5008 13.2742 24.9319 12.966 25.1289 12.5325C25.2492 12.2675 25.493 12.0257 25.7742 12.1007C27.0558 12.442 28 13.6107 28 14.9998V28.9998C28 30.6566 26.6569 31.9998 25 31.9998H19C17.3431 31.9998 16 30.6566 16 28.9998V14.9998C16 13.6189 16.933 12.4559 18.203 12.1068C18.4872 12.0287 18.7347 12.2761 18.8594 12.5432C19.0594 12.9712 19.4955 13.2742 19.9933 13.2742H23.9933Z" fill="white"/>
</svg>
