<svg width="100" height="100" viewBox="0 0 100 100" fill="none" xmlns="http://www.w3.org/2000/svg">
<rect x="10" y="10" width="80" height="80" rx="5" fill="white"/>
<path d="M50 27.082C29.168 27.082 14.582 50 14.582 50C14.582 50 25.207 72.918 50 72.918C75 72.918 85.418 50 85.418 50C85.418 50 71.043 27.082 50 27.082V27.082ZM50 64.582C41.875 64.582 35.418 58.125 35.418 50C35.418 41.875 41.875 35.418 50 35.418C58.125 35.418 64.582 41.875 64.582 50C64.582 58.125 58.125 64.582 50 64.582V64.582Z" fill="#00D7D7"/>
<path d="M56.25 50C56.25 53.4531 53.4531 56.25 50 56.25C46.5469 56.25 43.75 53.4531 43.75 50C43.75 46.5469 46.5469 43.75 50 43.75C53.4531 43.75 56.25 46.5469 56.25 50Z" fill="#00D7D7"/>
</svg>
