<svg width="100" height="100" viewBox="0 0 100 100" fill="none" xmlns="http://www.w3.org/2000/svg">
<rect x="10" y="10" width="80" height="80" rx="5" fill="white"/>
<path d="M82.9179 26.043L75.2109 33.75L67.9179 32.293L66.4609 25L74.1679 17.293C69.9999 16.25 65.4179 17.293 62.0859 20.418C58.3359 24.168 57.5039 30 59.5859 34.586L34.5859 59.586C30.0039 57.293 24.1679 58.129 20.4179 62.086C17.0859 65.418 16.0429 70.004 17.2929 74.168L24.9999 66.461L32.2929 67.918L33.7499 75.211L26.0429 82.918C30.2109 83.961 34.7929 82.918 38.1249 79.793C41.8749 76.043 42.7069 70.211 40.6249 65.625L65.6249 40.625C70.2069 42.918 76.0429 42.082 79.7929 38.125C82.9179 34.793 83.957 30.207 82.9179 26.043Z" fill="#00D7D7"/>
</svg>
