<svg width="100" height="100" viewBox="0 0 100 100" fill="none" xmlns="http://www.w3.org/2000/svg">
<rect x="10" y="10" width="80" height="80" rx="5" fill="white"/>
<path d="M60.836 66.659C57.711 64.991 59.379 61.866 60.836 60.409C62.711 58.534 65.004 52.077 65.004 52.077C68.754 50.409 69.172 47.702 69.586 45.827C71.254 40.409 67.086 39.577 67.086 39.577C67.086 39.577 70.418 30.62 67.711 23.745C64.168 14.788 49.793 11.452 47.293 19.788C30.211 16.0341 33.75 39.573 33.75 39.573C33.75 39.573 29.582 40.405 31.25 45.823C31.668 47.698 32.082 50.405 35.832 52.073C35.832 52.073 38.125 58.53 40 60.405C41.457 61.862 43.125 64.987 40 66.655C33.75 69.987 15 70.823 15 85.405H85.832C85.8359 70.823 67.086 69.991 60.836 66.659V66.659Z" fill="#00D7D7"/>
</svg>
