<svg width="192" height="707" viewBox="0 0 192 707" fill="none" xmlns="http://www.w3.org/2000/svg">
<path d="M85.6324 665.291C85.6324 665.291 88.3781 676.848 89.2362 682.195C90.2658 688.578 80.999 695.823 74.9927 691.683C63.4949 683.575 50.4527 695.65 41.0143 691.683C36.5524 689.785 30.3745 694.443 28.1436 689.613C25.5695 683.92 33.2919 680.988 37.7537 682.713C42.2155 684.438 64.6962 674.605 69.5012 665.636L85.6324 665.291Z" fill="#FAA183"/>
<path d="M111.889 353.069C111.889 353.069 116.179 400.506 94.7277 499.865L60.4061 504.177C60.4061 504.177 43.7601 396.711 56.9739 348.584L111.889 353.069Z" fill="#38797A"/>
<path d="M86.6621 669.948C86.6621 669.948 117.723 596.464 94.7277 499.865L60.4061 504.177L63.495 670.12H86.6621V669.948Z" fill="#38797A"/>
<path d="M61.6072 664.6C61.6072 664.6 63.3233 667.015 61.0924 669.948C58.8615 672.88 31.7474 686.853 31.7474 686.853L34.3215 678.573C34.3215 678.573 43.76 676.848 48.2218 673.57C52.8552 670.293 58.3467 661.323 61.4356 664.428L61.6072 664.6Z" fill="#1C5A68"/>
<path d="M91.2955 682.196C91.2955 682.196 91.6387 685.818 91.2955 689.095C91.1238 691.338 89.4078 693.235 87.3485 693.753C83.2299 694.615 75.5075 695.823 65.7258 693.753C65.7258 693.753 56.9738 693.408 53.37 694.788C49.7662 696.168 37.4105 696.513 29.6881 693.235C21.9657 689.785 22.3089 689.268 22.3089 689.268C22.3089 689.268 20.9361 683.231 23.167 681.851C23.167 681.851 24.883 685.646 33.4635 687.371C42.7303 689.268 89.751 683.576 91.2955 682.196Z" fill="#F6CFA5"/>
<path d="M34.4932 678.573C34.4932 678.573 33.1203 685.818 31.919 686.853C31.919 686.853 24.7115 684.956 23.3386 681.678C23.3386 681.678 27.114 677.021 34.4932 678.401V678.573Z" fill="#F6CFA5"/>
<path d="M31.9192 686.853C32.2624 686.853 33.8069 687.198 36.0378 687.543C37.7539 687.715 39.9848 688.06 42.2157 688.233C49.7664 688.75 60.0629 687.025 65.2112 686.853C74.3064 686.508 87.1771 687.888 90.266 684.438C90.7808 683.92 91.124 683.058 91.2956 682.195C91.9821 678.055 89.0647 671.5 89.408 666.498C89.408 666.498 78.0818 669.603 65.0396 665.463C65.0396 665.463 63.1519 667.015 62.1222 667.705C60.5778 669.085 57.832 671.155 55.4295 672.708C55.0863 672.88 54.7431 673.225 54.3999 673.398C53.1986 674.088 52.169 674.778 51.3109 674.95C50.9677 674.95 50.7961 674.95 50.6245 675.123C50.4529 675.123 50.2813 675.123 49.938 675.123C49.08 675.295 47.8788 675.64 46.5059 676.33C46.5059 676.33 45.8195 676.675 45.3046 676.848C44.275 677.193 43.2453 677.71 42.2157 678.228C41.8725 678.4 41.5293 678.573 41.186 678.745C37.5823 680.643 34.1501 683.058 32.434 685.3C32.0908 685.645 31.9192 686.163 31.7476 686.508C31.7476 686.508 31.7476 686.508 31.7476 686.68L31.9192 686.853Z" fill="#164B56"/>
<path d="M52.3404 669.258C53.8849 670.983 55.4293 672.708 56.9738 674.433C57.4886 674.951 56.6306 675.985 56.1158 675.295C54.5713 673.571 53.0268 671.846 51.4824 670.121C50.9675 669.603 51.8256 668.568 52.3404 669.258Z" fill="#F6CFA5"/>
<path d="M49.2514 672.535C50.4527 673.915 51.6539 675.295 52.8552 676.675C53.37 677.193 52.512 678.228 51.9971 677.538C50.7959 676.158 49.5946 674.778 48.3934 673.398C47.8785 672.88 48.7366 671.845 49.2514 672.535Z" fill="#F6CFA5"/>
<path d="M45.3046 674.778C46.5059 676.158 47.5355 677.538 48.7368 679.091C49.2516 679.781 48.3935 680.643 47.8787 679.953C46.6775 678.573 45.6478 677.193 44.4466 675.641C43.9317 674.951 44.7898 674.088 45.3046 674.778Z" fill="#F6CFA5"/>
<path d="M41.3575 676.675C42.2156 678.228 43.0736 679.608 43.9317 681.16C44.2749 681.85 43.2452 682.54 42.902 681.85C42.044 680.298 41.1859 678.918 40.3279 677.365C39.9847 676.675 41.0143 675.985 41.3575 676.675Z" fill="#F6CFA5"/>
<path d="M66.0691 20.3198C66.0691 20.3198 51.4824 50.852 66.5839 74.4843L88.2065 37.5696L66.0691 20.3198Z" fill="#5E2500"/>
<path d="M74.4779 73.2769C74.4779 73.2769 67.4419 67.2395 61.6072 74.1394C55.9442 81.2119 62.1221 98.8067 66.5839 100.532C71.0457 102.257 74.8211 101.049 75.3359 99.8417C75.8507 98.6342 74.4779 73.2769 74.4779 73.2769Z" fill="#F77A4D"/>
<path d="M53.8848 74.312L76.7087 71.207V73.622L53.8848 77.417V74.312Z" fill="#AD1D06"/>
<path d="M52.8552 181.088C27.2856 223.178 35.3512 269.235 35.3512 269.235L50.7959 275.617C83.4015 212.138 73.963 163.321 73.2766 160.216V160.043L65.8975 166.426C60.7492 170.393 56.2874 175.223 52.8552 180.916V181.088Z" fill="#FAA183"/>
<path d="M15.788 360.486C15.788 360.486 43.5885 336.164 54.0566 268.89L35.1797 266.647C35.1797 266.647 17.3325 310.117 14.7583 331.507C13.7287 339.097 9.43849 351.689 9.26688 355.829C9.26688 363.246 15.9596 360.486 15.9596 360.486H15.788Z" fill="#FAA183"/>
<path d="M9.78161 392.571C9.78161 392.571 20.9362 401.196 18.7052 402.058C16.4743 403.093 8.23715 396.538 8.23715 396.538L9.78161 392.398V392.571Z" fill="#D68A70"/>
<path d="M9.61002 396.193C9.61002 396.193 18.8769 406.371 16.4743 406.888C14.0718 407.406 7.03588 399.988 7.03588 399.988L9.4384 396.193H9.61002Z" fill="#E39277"/>
<path d="M10.9828 388.776C10.9828 389.811 9.78152 400.506 9.78152 400.506C9.78152 400.506 14.5866 410.511 12.3557 411.546C10.6396 412.408 4.11845 401.023 4.11845 401.023L4.80488 389.121H10.9828V388.776Z" fill="#EB977B"/>
<path d="M14.2435 335.129C14.2435 337.026 -4.60017e-06 387.913 -4.60017e-06 387.913C-4.60017e-06 387.913 2.2309 414.306 4.2902 414.306C6.86433 414.306 6.86434 393.951 6.86434 393.951L16.4744 383.946C16.4744 383.946 19.9065 389.121 19.0485 392.053C18.1905 394.986 20.4214 400.851 22.4807 400.678C22.4807 400.678 23.6819 399.988 24.1968 395.676C24.7116 391.363 27.6289 381.186 25.2264 376.528C22.8239 371.871 18.5337 368.766 20.0782 365.144C21.6226 361.694 29.6882 341.339 29.6882 341.339L14.2435 335.301V335.129Z" fill="#FAA183"/>
<path d="M99.3611 124.509H129.393V166.253H99.3611V124.509Z" fill="#FAA183"/>
<path d="M152.731 349.964C152.731 349.964 165.43 400.506 144.151 500.037L110.516 509.525C110.516 509.525 88.3781 397.746 101.42 349.446L152.731 349.964Z" fill="#3D8788"/>
<path d="M133.854 670.293C133.854 670.293 167.146 596.464 144.151 499.865L110.516 509.352L117.552 671.155L134.026 670.12L133.854 670.293Z" fill="#3D8788"/>
<path d="M150.157 192.473C142.435 241.118 167.318 280.792 167.318 280.792H183.964C200.782 202.478 163.543 168.841 161.827 166.253L156.85 174.188C153.589 179.881 151.358 186.091 150.329 192.473C150.329 192.473 150.329 192.473 150.329 192.646L150.157 192.473Z" fill="#FAA183"/>
<path d="M183.449 372.561C183.449 372.561 199.923 339.441 184.307 273.202L165.944 278.377C165.944 278.377 165.944 325.297 171.436 346.341C173.495 353.759 174.01 367.041 175.555 370.836C178.3 377.736 183.449 372.561 183.449 372.561Z" fill="#FAA183"/>
<path d="M172.295 402.576C172.295 402.576 158.738 406.371 160.454 408.096C162.17 409.821 172.295 407.061 172.295 407.061V402.576Z" fill="#FAA183"/>
<path d="M170.922 406.026C170.922 406.026 158.394 411.891 160.454 413.271C162.513 414.651 171.78 410.338 171.78 410.338L170.922 406.026Z" fill="#FAA183"/>
<path d="M172.466 398.781C172.123 399.816 169.206 409.993 169.206 409.993C169.206 409.993 160.969 417.411 162.685 419.136C163.886 420.516 174.354 412.581 174.354 412.581L178.301 401.196L172.638 398.608L172.466 398.781Z" fill="#FAA183"/>
<path d="M189.627 347.549C189.112 349.274 183.106 401.886 183.106 401.886C183.106 401.886 171.093 425.518 169.206 424.656C166.975 423.621 174.354 404.818 174.354 404.818L169.206 391.881C169.206 391.881 164.057 395.503 163.714 398.436C163.371 401.368 159.252 406.026 157.193 404.991C157.193 404.991 156.335 403.783 157.365 399.643C158.566 395.503 159.767 384.809 163.542 381.531C167.489 378.081 172.638 376.874 172.638 373.079C172.638 369.284 172.638 347.376 172.638 347.376L189.112 347.721L189.627 347.549Z" fill="#FAA183"/>
<path d="M85.8042 22.2174C102.45 6.86504 127.333 6.86504 143.979 22.2174C160.111 37.0522 163.2 59.9945 162.685 78.4518C163.2 95.1841 158.223 115.711 142.092 129.339C125.446 143.484 102.279 144.001 85.6326 129.856C69.5014 116.229 66.4124 95.1841 66.9273 78.4518C66.4124 59.9945 69.673 37.0522 85.6326 22.2174H85.8042Z" fill="#FAA183"/>
<path d="M123.043 88.284C125.617 88.284 127.848 86.2141 127.848 83.4541V77.0716C127.848 74.4842 125.789 72.2417 123.043 72.2417C120.469 72.2417 118.238 74.3117 118.238 77.0716V83.4541C118.238 86.0416 120.297 88.284 123.043 88.284Z" fill="#67413D"/>
<path d="M73.6198 88.284C76.1939 88.284 78.4248 86.2141 78.4248 83.4541V77.0716C78.4248 74.4842 76.3655 72.2417 73.6198 72.2417C71.0456 72.2417 68.8147 74.3117 68.8147 77.0716V83.4541C68.8147 86.0416 70.874 88.284 73.6198 88.284Z" fill="#67413D"/>
<path d="M81.3423 60.5122L80.9991 65.5147C80.9991 65.5147 76.0224 64.1347 68.9865 66.5497V63.4447C68.9865 63.4447 76.194 59.4773 81.3423 60.6847V60.5122Z" fill="#5E2500"/>
<path d="M116.522 60.5122L116.865 65.5147C116.865 65.5147 121.842 64.1347 128.878 66.5497V63.4447C128.878 63.4447 121.67 59.4773 116.522 60.6847V60.5122Z" fill="#5E2500"/>
<path d="M97.4735 121.576C107.427 121.576 114.463 112.089 113.776 109.846C113.433 108.639 111.545 109.156 108.628 109.846C105.711 110.709 101.764 111.744 97.4735 111.744C92.4969 111.744 88.2067 110.364 85.1177 109.674C82.8868 109.156 81.3424 108.811 81.1707 109.846C80.4843 112.089 87.5203 121.749 97.4735 121.576Z" fill="#67413D"/>
<path d="M85.1176 109.501L86.1472 115.711C96.2721 121.059 108.113 115.539 108.113 115.539L108.628 110.019C105.711 110.881 101.764 111.916 97.4734 111.916C92.4968 111.916 88.2065 110.536 85.1176 109.846V109.501Z" fill="#FFFCFC"/>
<path d="M56.6307 350.827C87.177 369.801 152.731 350.827 152.731 350.827C152.731 350.827 148.441 335.819 154.447 294.765C160.454 254.055 166.46 201.616 164.744 175.396C163.886 162.114 148.27 154.524 135.914 150.211C133.854 149.521 131.624 149.004 129.564 148.486C129.564 148.486 127.333 165.391 110.516 165.046C110.516 165.046 100.906 164.529 99.5328 149.521C83.23 153.316 69.1581 161.424 64.1815 168.324C40.1563 202.133 54.3998 241.98 62.9802 266.13C71.5606 290.28 56.6307 350.999 56.6307 350.999V350.827Z" fill="#D0D5CE"/>
<path d="M116.007 663.911C116.007 663.911 121.499 666.671 119.954 670.811C112.06 692.028 91.982 696.858 91.982 696.858V685.3C91.982 685.3 100.562 680.816 104.166 675.813C107.942 670.811 111.202 662.013 116.007 664.083V663.911Z" fill="#1C5A68"/>
<path d="M141.748 675.468C141.748 675.468 142.263 679.263 142.263 682.713C142.263 685.128 140.89 687.715 139.174 688.75C135.57 690.993 133.511 694.27 124.244 695.133C124.244 695.133 116.35 697.375 113.433 700.308C110.516 703.24 99.7043 707.552 91.8103 705.482C83.7448 703.24 83.4015 700.825 83.4015 700.825C83.4015 700.825 80.999 694.788 82.5435 692.2C82.5435 692.2 85.2892 696.858 93.698 696.685C102.622 696.513 140.547 677.365 141.748 675.468Z" fill="#F6CFA5"/>
<path d="M92.1535 685.128C92.1535 685.128 92.6683 694.788 92.1535 696.685C92.1535 696.685 84.946 696.168 82.7151 692.2C82.7151 692.2 84.946 685.128 92.3251 685.128H92.1535Z" fill="#F6CFA5"/>
<path d="M95.9291 697.548C95.9291 697.548 96.4439 697.548 96.7871 697.548C98.5032 697.376 100.562 697.031 102.622 696.686C109.658 695.133 118.753 690.303 123.558 688.578C131.795 685.646 139.174 683.921 141.92 679.436C142.435 678.573 142.607 677.711 142.607 676.848C142.95 672.363 139.518 665.981 139.346 660.461C139.346 660.461 132.482 666.671 119.096 664.428C119.096 664.428 118.581 680.816 97.6451 693.063L96.1007 697.721L95.9291 697.548Z" fill="#164B56"/>
<path d="M108.8 668.913C111.03 671.156 113.433 673.225 115.664 675.468C116.522 676.158 115.664 677.71 114.806 677.02C112.575 674.95 110.344 672.708 107.941 670.466C107.083 669.776 107.942 668.051 108.8 668.913Z" fill="#F6CFA5"/>
<path d="M105.367 674.088C107.427 675.986 109.486 678.056 111.717 679.781C112.575 680.643 111.717 682.368 110.859 681.506C108.8 679.608 106.74 677.711 104.509 675.813C103.651 674.951 104.509 673.226 105.367 674.088Z" fill="#F6CFA5"/>
<path d="M101.421 678.401C103.48 680.298 105.368 682.368 107.427 684.266C108.285 685.128 107.427 686.853 106.569 685.99C104.509 684.093 102.622 682.023 100.562 680.126C99.7044 679.263 100.562 677.538 101.421 678.401Z" fill="#F6CFA5"/>
<path d="M97.9884 681.85C99.5328 684.093 101.077 686.508 102.793 688.75C103.48 689.785 102.45 691.338 101.764 690.13C100.219 687.888 98.6748 685.645 96.9587 683.23C96.2723 682.195 97.3019 680.643 97.9884 681.85Z" fill="#F6CFA5"/>
<path d="M92.1535 685.128C92.1535 685.128 102.965 688.75 100.734 697.72C99.361 703.413 86.8336 698.928 86.8336 698.928L92.1535 685.128Z" fill="#F6CFA5"/>
<path d="M111.031 47.5747C114.463 48.0922 129.907 53.6121 151.53 48.7822L160.797 80.1768C160.797 80.1768 172.295 40.6747 164.401 29.8074C156.507 19.1125 151.53 19.975 151.53 19.975C151.53 19.975 155.649 11.6951 148.784 7.9001C141.92 4.10514 102.622 -5.55476 84.9461 7.9001C67.2704 21.1825 60.2345 11.6951 60.2345 11.6951C60.2345 11.6951 57.832 38.7773 111.202 47.5747H111.031Z" fill="#5E2500"/>
<path d="M69.8445 109.501C69.8445 109.501 69.6729 103.119 69.8445 103.636C71.3889 108.639 72.5902 108.984 73.105 108.811C73.105 108.811 75.8508 99.1515 90.2659 98.8065C92.1535 98.8065 94.3845 98.8065 96.787 99.324C99.5327 98.8065 101.935 98.4615 104.166 98.4615C118.581 98.289 121.67 108.121 121.67 108.121C122.871 108.466 123.901 108.466 124.931 108.639C145.009 112.606 151.358 84.6616 151.358 84.6616C151.358 84.6616 149.814 106.914 140.547 121.404C137.63 125.889 125.446 130.029 121.155 132.271C112.403 137.101 102.278 137.791 97.9882 137.964H97.645H97.1302C95.5857 137.964 93.1832 137.964 90.2659 137.619C90.2659 137.619 90.2658 137.619 90.0942 137.619C76.8804 132.271 71.5605 119.679 69.3296 109.501C69.5012 109.501 69.6729 109.501 69.8445 109.501ZM118.924 110.364C117.037 105.189 111.888 103.981 106.912 103.981C104.166 103.981 101.592 104.499 99.7043 104.844C98.8463 105.016 98.1598 105.189 97.3018 105.189C96.4437 105.189 95.7573 105.189 94.8993 105.016C93.1832 104.671 90.4375 104.326 87.6917 104.326C82.8867 104.326 77.5668 105.706 75.8508 111.054C72.7618 120.196 84.946 128.994 90.7807 128.994C91.6387 128.994 92.3252 128.821 92.84 128.304C96.1005 124.854 92.1535 123.646 92.1535 123.646H93.698C94.8993 123.301 96.1005 123.301 97.3018 123.301H98.8463C98.8463 123.301 95.0709 124.854 98.3314 128.304C98.6747 128.821 99.5327 128.994 100.391 128.994C106.225 128.994 121.842 119.679 118.581 110.536L118.924 110.364Z" fill="#5E2500"/>
<path d="M190.142 255.435C190.142 255.435 183.449 262.163 158.566 264.75C158.566 264.75 132.138 194.371 161.827 166.081C161.827 166.081 192.544 194.198 190.142 255.435Z" fill="#D0D5CE"/>
<path d="M60.0628 261.472C60.0628 261.472 42.7304 259.575 31.5758 253.192C31.5758 253.192 36.3809 189.541 64.0098 168.151C64.0098 168.151 72.4186 234.735 60.0628 261.472Z" fill="#D0D5CE"/>
<path d="M151.53 48.9548V83.7995L161.312 84.317L163.028 47.4023L151.53 48.9548Z" fill="#5E2500"/>
<path d="M134.712 74.312L160.797 71.207V73.622L134.712 77.417V74.312Z" fill="#AD1D06"/>
<path d="M162.341 80.1768C162.341 80.1768 167.146 137.101 110.859 139.861C110.859 139.861 106.569 140.206 87.6918 137.446C87.6918 137.446 133.683 128.994 141.062 116.229C148.441 103.292 151.358 83.7992 151.358 83.7992L162.17 80.1768H162.341Z" fill="#5E2500"/>
<path d="M69.3297 109.502C71.389 119.679 76.8805 132.444 90.0943 137.619C90.0943 137.619 90.0944 137.619 90.266 137.619C114.291 147.106 139.174 131.581 139.174 131.581L121.327 132.271L111.374 132.616L88.8931 132.099L77.2237 123.129C77.2237 123.129 74.3064 116.402 71.7323 109.157C69.8446 103.809 68.1285 97.9442 67.9569 94.3218C67.9569 94.3218 67.6137 101.049 69.3297 109.329V109.502Z" fill="#5E2500"/>
<path d="M154.104 79.4868C154.104 76.2094 155.992 73.2769 159.081 72.0694C161.998 70.8619 165.602 70.6894 168.519 74.3119C174.354 81.3843 168.004 98.9791 163.543 100.704C159.081 102.429 156.678 100.704 155.82 99.8416C154.276 98.4616 154.276 86.3867 154.276 79.4868H154.104Z" fill="#F77A4D"/>
<path d="M97.1301 90.354H87.0052C87.0052 90.354 91.1238 99.4964 97.1301 90.354Z" fill="#F77A4D"/>
<path opacity="0.4" d="M101.935 78.2794V85.8693C101.935 88.6293 103.651 90.6993 105.539 90.6993H130.765C132.825 90.5268 134.541 88.2843 134.541 85.5243V77.9344C134.541 77.9344 134.198 76.8994 133.683 76.8994H102.622C102.622 76.8994 101.764 77.5894 101.764 78.2794H101.935Z" fill="white"/>
<path opacity="0.4" d="M53.37 78.2794V85.8693C53.37 88.6293 54.9145 90.6993 56.9738 90.6993H82.2002C84.2595 90.5268 85.9756 88.2843 85.9756 85.5243V77.9344C85.9756 77.9344 85.6324 76.8994 85.1175 76.8994H54.0564C54.0564 76.8994 53.1984 77.5894 53.1984 78.2794H53.37Z" fill="white"/>
<g opacity="0.29">
<path d="M114.291 77.0718L121.499 90.6991L129.564 90.5266L122.528 77.0718H114.291Z" fill="white"/>
<path d="M102.107 77.2443L109.314 90.6991H115.835L108.628 77.0718L102.107 77.2443Z" fill="white"/>
</g>
<g opacity="0.29">
<path d="M66.0691 77.5895L73.1051 91.0443H81.3423L74.1347 77.417L66.0691 77.5895Z" fill="white"/>
<path d="M53.8848 77.5894L60.9208 91.0442H67.4419L60.406 77.5894H53.8848Z" fill="white"/>
</g>
<path d="M52.1689 75.0019C52.1689 75.0019 53.3702 74.1394 54.0566 74.1394H85.1177C87.0054 73.9669 88.3782 75.8644 88.3782 78.2794V82.5918C91.982 81.2119 95.7574 81.2119 99.1896 82.5918V78.2794C99.1896 75.8644 100.734 73.7944 102.622 73.7944H133.683C133.683 73.7944 134.541 73.7944 134.884 73.7944C136.085 74.4844 137.115 76.0369 136.943 77.9344V85.5243C136.943 87.9393 136.085 90.1818 134.712 91.7343C133.683 93.1142 132.138 93.8042 130.594 93.8042H105.367C102.107 93.9767 99.5328 90.8718 99.1896 86.5593C95.7574 84.8343 91.6388 84.8343 88.2066 86.5593C87.8634 90.6993 85.2893 93.9767 82.0287 93.9767H56.8023C54.9146 94.1492 53.0269 92.9417 51.9973 91.0443C51.1392 89.6643 50.6244 87.9393 50.6244 85.8693V78.2794C50.6244 76.7269 51.3109 75.5194 52.1689 74.6569V75.0019ZM101.935 85.8693C101.935 88.6293 103.651 90.6993 105.539 90.6993H130.765C132.825 90.5268 134.541 88.2843 134.541 85.5243V77.9344C134.541 77.9344 134.198 76.8994 133.683 76.8994H102.622C102.622 76.8994 101.764 77.5894 101.764 78.2794V85.8693H101.935ZM53.3702 86.2143C53.3702 88.9743 55.0862 91.0443 57.1455 91.0443H82.372C84.4313 90.8718 86.1473 88.6293 86.1473 86.0418V78.4519C86.1473 78.4519 85.8041 77.4169 85.2893 77.4169H54.2282C54.2282 77.4169 53.3702 78.1069 53.3702 78.6244V86.2143Z" fill="#AD1D06"/>
<path d="M146.553 28.9448C146.553 28.9448 87.5202 42.7447 66.0692 18.5949C66.0692 18.5949 88.3783 23.7699 100.219 15.145C112.06 6.52004 137.458 -1.41487 146.553 28.9448Z" fill="#783B21"/>
<path d="M159.939 44.9871C161.14 45.3321 163.542 19.4574 142.95 24.9773C142.95 24.9773 136.257 39.1222 159.939 44.9871Z" fill="#783B21"/>
<path d="M55.4295 348.929C87.5202 359.107 121.499 359.107 153.418 348.929L154.104 359.797C121.499 369.629 87.177 369.629 54.7431 359.797C54.7431 356.174 55.0863 349.964 55.4295 348.929Z" fill="#754C24"/>
<path d="M85.1922 353.808L105.728 355.345L104.632 370.139L84.0959 368.601L85.1922 353.808Z" fill="#AA6D38"/>
<path d="M132.996 376.529C132.653 380.496 142.435 391.364 149.471 394.469L147.24 396.884C147.24 396.884 131.109 387.741 127.848 380.496L132.996 376.529Z" fill="#337071"/>
<path d="M52.1688 389.811C56.8022 386.533 62.2937 382.221 64.0098 378.426L58.8615 374.458C59.0331 376.701 56.1158 380.841 52.3404 384.808C52.3404 386.533 52.3404 388.258 52.1688 389.983V389.811Z" fill="#337071"/>
</svg>
